<?xml version="1.0" standalone="no"?>
<!DOCTYPE svg PUBLIC "-//W3C//DTD SVG 20010904//EN"
 "http://www.w3.org/TR/2001/REC-SVG-20010904/DTD/svg10.dtd">
<svg version="1.0" xmlns="http://www.w3.org/2000/svg"
 width="700.000000pt" height="700.000000pt" viewBox="0 0 700.000000 700.000000"
 preserveAspectRatio="xMidYMid meet">
<metadata>
Created by potrace 1.14, written by Peter Selinger 2001-2017
</metadata>
<g transform="translate(0.000000,700.000000) scale(0.100000,-0.100000)"
fill="#000000" stroke="none">
<path d="M580 6993 c-51 -8 -157 -46 -210 -74 -133 -70 -232 -174 -301 -315
-74 -153 -69 101 -69 -3110 0 -2843 0 -2892 20 -2968 63 -246 260 -443 506
-506 76 -20 125 -20 2974 -20 2849 0 2898 0 2974 20 246 63 443 260 506 506
20 76 20 125 20 2974 0 2849 0 2898 -20 2974 -63 246 -260 443 -506 506 -76
20 -123 20 -2973 19 -1593 -1 -2907 -4 -2921 -6z m5338 -1280 c50 -21 117 -88
142 -141 16 -34 23 -65 23 -112 -1 -63 -20 -113 -632 -1595 -692 -1677 -647
-1579 -756 -1631 -70 -33 -163 -33 -231 1 -35 18 -319 279 -994 914 -520 490
-948 887 -951 883 -11 -13 -631 -1523 -627 -1527 2 -3 197 160 434 360 236
201 432 365 436 365 10 0 351 -407 348 -416 -7 -21 -1769 -1506 -1810 -1525
-56 -27 -157 -29 -213 -5 -55 24 -122 89 -147 144 -17 34 -23 65 -22 112 0 63
20 114 631 1595 692 1677 647 1579 756 1631 69 33 161 33 230 0 38 -18 284
-244 995 -914 520 -490 948 -888 951 -884 11 12 631 1523 627 1527 -2 2 -191
-154 -419 -348 -229 -194 -423 -358 -431 -365 -14 -11 -39 15 -192 195 -97
114 -175 210 -174 214 2 3 136 119 298 256 162 138 558 473 880 746 322 273
601 504 620 514 71 34 155 36 228 6z"/>
</g>
</svg>
