<svg width="674" height="844" viewBox="0 0 674 844" fill="none" xmlns="http://www.w3.org/2000/svg">
<rect width="674" height="844" fill="#F5F5F5"/>
<g clip-path="url(#clip0_0_1)">
<rect width="674" height="844" fill="white"/>
<g filter="url(#filter0_f_0_1)">
<path d="M124.211 576.113C114.051 562.953 69.8036 517.722 -25.903 442.077L-25.903 754.564H327.711C331.47 753.774 317.95 740.943 233.802 695.936C222.526 690.54 184.821 659.022 124.211 576.113Z" fill="#2B61EE" fill-opacity="0.9"/>
<path d="M144.15 643.427C133.813 648.362 110.039 682.078 97.6356 777.463H357.869C332.791 762.526 279.323 733.718 266.074 737.982C249.512 743.312 234.007 637.9 219.031 622.305C207.05 609.829 164.118 631.188 144.15 643.427Z" fill="#4CF8F8"/>
</g>
<g style="mix-blend-mode:overlay" filter="url(#filter1_f_0_1)">
<path d="M238.304 722.25C234.517 722.747 236.056 748.463 272.511 847.343L381.479 707.073L181.31 511.88C168.086 508.872 139.389 504.002 130.389 508.584C119.139 514.311 189.522 587.266 179.329 594.417C171.176 600.137 223.993 661.215 251.421 691.039L238.304 722.25Z" fill="#EE46FD"/>
<path d="M113.444 455.239C100.668 442.967 97.0469 454.588 184.776 599.257C185.735 604.35 188.757 618.664 193.171 635.179C198.688 655.823 270.938 693.516 283.655 700.146C293.828 705.45 267.769 765.257 253.468 794.497L343.069 679.157L113.444 455.239Z" fill="#3FEB98"/>
<path d="M151.926 429.898C143.894 430.451 107.673 424.955 90.5668 422.139C79.4471 418.504 55.5478 411.11 48.9091 410.618C40.6107 410.002 38.4213 430.361 26.6039 443.399C14.7866 456.437 50.9583 552.411 48.3723 576.019C45.7862 599.627 163.626 631.404 174.786 642.399C185.947 653.395 237.444 606.856 247.482 606.815C257.52 606.774 255.162 560.021 261.56 551.552C267.958 543.083 213.907 483.985 217.401 478.125C220.894 472.266 161.966 429.208 151.926 429.898Z" fill="#FB5C5C"/>
<path d="M236.683 577.252C228.651 577.804 192.43 572.309 175.323 569.492C164.203 565.857 140.304 558.464 133.666 557.972C125.367 557.356 123.178 577.715 111.36 590.753C99.543 603.79 135.715 699.765 133.129 723.373C130.543 746.981 248.383 778.757 259.543 789.753C270.703 800.748 322.201 754.209 332.239 754.168C342.277 754.128 339.919 707.375 346.316 698.906C352.714 690.437 298.664 631.339 302.157 625.479C305.651 619.62 246.722 576.562 236.683 577.252Z" fill="#FB5C5C"/>
<path d="M172.552 612.003C161.981 632.928 218.362 652.076 247.257 690.372C266.344 714.915 307.303 769.53 318.438 791.639C332.357 819.275 340.814 774.268 342.928 752.751C345.043 731.234 315.619 579.037 299.585 563.443C283.552 547.848 213.076 526.923 181.538 525.739C150 524.555 183.123 591.079 172.552 612.003Z" fill="#FF9D2B"/>
</g>
</g>
<defs>
<filter id="filter0_f_0_1" x="-225.903" y="242.077" width="783.772" height="735.385" filterUnits="userSpaceOnUse" color-interpolation-filters="sRGB">
<feFlood flood-opacity="0" result="BackgroundImageFix"/>
<feBlend mode="normal" in="SourceGraphic" in2="BackgroundImageFix" result="shape"/>
<feGaussianBlur stdDeviation="100" result="effect1_foregroundBlur_0_1"/>
</filter>
<filter id="filter1_f_0_1" x="-75.7758" y="310.604" width="557.255" height="636.739" filterUnits="userSpaceOnUse" color-interpolation-filters="sRGB">
<feFlood flood-opacity="0" result="BackgroundImageFix"/>
<feBlend mode="normal" in="SourceGraphic" in2="BackgroundImageFix" result="shape"/>
<feGaussianBlur stdDeviation="50" result="effect1_foregroundBlur_0_1"/>
</filter>
<clipPath id="clip0_0_1">
<rect width="674" height="844" fill="white"/>
</clipPath>
</defs>
</svg>
