<svg width="2074" height="1500" viewBox="0 0 2074 1500" fill="none" xmlns="http://www.w3.org/2000/svg">
<g clip-path="url(#clip0_1_2)">
<rect width="2074" height="1500" transform="matrix(1 0 0 -1 0 1500)" fill="white"/>
<g filter="url(#filter0_f_1_2)">
<path d="M514.849 888.54C482.125 848.83 339.612 712.347 31.3586 484.094L31.3586 1427.01L1170.28 1427.01C1182.39 1424.62 1138.85 1385.91 867.82 1250.1C831.501 1233.82 710.061 1138.71 514.849 888.54Z" fill="#2B61EE" fill-opacity="0.9"/>
<path d="M579.068 1091.66C545.776 1106.55 469.204 1208.28 429.254 1496.1H1267.42C1186.65 1451.03 1014.44 1364.11 971.762 1376.97C918.419 1393.05 868.481 1074.98 820.245 1027.92C781.657 990.276 643.382 1054.73 579.068 1091.66Z" fill="#4CF8F8"/>
</g>
<g style="mix-blend-mode:overlay" filter="url(#filter1_f_1_2)">
<path d="M882.32 1329.5C870.123 1331 875.081 1408.6 992.496 1706.96L1343.46 1283.7L698.754 694.719C656.163 685.644 563.734 670.95 534.747 684.774C498.513 702.054 725.203 922.192 692.375 943.77C666.113 961.032 836.227 1145.33 924.568 1235.32L882.32 1329.5Z" fill="#EE46FD"/>
<path d="M480.17 523.81C439.02 486.778 427.358 521.846 709.916 958.375C713.006 973.742 722.741 1016.94 736.956 1066.77C754.726 1129.06 987.43 1242.8 1028.39 1262.8C1061.16 1278.81 977.223 1459.27 931.161 1547.5L1219.75 1199.47L480.17 523.81Z" fill="#3FEB98"/>
<path d="M604.114 447.345C578.244 449.012 461.584 432.43 406.487 423.93C370.672 412.962 293.697 390.653 272.315 389.167C245.587 387.31 238.536 448.742 200.474 488.082C162.413 527.423 278.915 817.021 270.586 888.257C262.257 959.493 641.798 1055.38 677.743 1088.56C713.688 1121.73 879.553 981.304 911.883 981.181C944.213 981.057 936.619 839.984 957.224 814.429C977.83 788.873 803.743 610.548 814.996 592.867C826.248 575.187 636.451 445.262 604.114 447.345Z" fill="#FB5C5C"/>
<path d="M877.098 891.977C851.229 893.644 734.568 877.061 679.471 868.562C643.657 857.593 566.682 835.285 545.3 833.799C518.572 831.941 511.52 893.374 473.459 932.714C435.397 972.055 551.9 1261.65 543.571 1332.89C535.241 1404.12 914.782 1500.01 950.727 1533.19C986.672 1566.37 1152.54 1425.94 1184.87 1425.81C1217.2 1425.69 1209.6 1284.62 1230.21 1259.06C1250.81 1233.51 1076.73 1055.18 1087.98 1037.5C1099.23 1019.82 909.435 889.894 877.098 891.977Z" fill="#FB5C5C"/>
<path d="M670.546 996.837C636.497 1059.98 818.09 1117.75 911.156 1233.31C972.633 1307.37 1104.55 1472.16 1140.42 1538.88C1185.25 1622.27 1212.49 1486.46 1219.3 1421.53C1226.11 1356.61 1131.34 897.364 1079.7 850.308C1028.06 803.251 801.066 740.113 699.487 736.539C597.909 732.965 704.595 933.698 670.546 996.837Z" fill="#FF9D2B"/>
</g>
</g>
<defs>
<filter id="filter0_f_1_2" x="-268.641" y="184.094" width="1836.06" height="1612.01" filterUnits="userSpaceOnUse" color-interpolation-filters="sRGB">
<feFlood flood-opacity="0" result="BackgroundImageFix"/>
<feBlend mode="normal" in="SourceGraphic" in2="BackgroundImageFix" result="shape"/>
<feGaussianBlur stdDeviation="150" result="effect1_foregroundBlur_1_2"/>
</filter>
<filter id="filter1_f_1_2" x="112.81" y="309.126" width="1310.65" height="1477.84" filterUnits="userSpaceOnUse" color-interpolation-filters="sRGB">
<feFlood flood-opacity="0" result="BackgroundImageFix"/>
<feBlend mode="normal" in="SourceGraphic" in2="BackgroundImageFix" result="shape"/>
<feGaussianBlur stdDeviation="40" result="effect1_foregroundBlur_1_2"/>
</filter>
<clipPath id="clip0_1_2">
<rect width="2074" height="1500" fill="white" transform="matrix(1 0 0 -1 0 1500)"/>
</clipPath>
</defs>
</svg>
